<?xml version="1.0" encoding="UTF-8" standalone="no"?>
<!-- Created with clker.com Auto tracing tool http://www.clker.com) -->

<svg
   xmlns:dc="http://purl.org/dc/elements/1.1/"
   xmlns:cc="http://creativecommons.org/ns#"
   xmlns:rdf="http://www.w3.org/1999/02/22-rdf-syntax-ns#"
   xmlns:svg="http://www.w3.org/2000/svg"
   xmlns="http://www.w3.org/2000/svg"
   xmlns:sodipodi="http://sodipodi.sourceforge.net/DTD/sodipodi-0.dtd"
   xmlns:inkscape="http://www.inkscape.org/namespaces/inkscape"
   width="728.000000"
   height="1373.000000"
   id="svg3991"
   version="1.1"
   inkscape:version="0.48.4 r9939"
   sodipodi:docname="rocket-ship-shooting-th.svg">
  <metadata
     id="metadata4033">
    <rdf:RDF>
      <cc:Work
         rdf:about="">
        <dc:format>image/svg+xml</dc:format>
        <dc:type
           rdf:resource="http://purl.org/dc/dcmitype/StillImage" />
      </cc:Work>
    </rdf:RDF>
  </metadata>
  <defs
     id="defs4031" />
  <sodipodi:namedview
     pagecolor="#ffffff"
     bordercolor="#666666"
     borderopacity="1"
     objecttolerance="10"
     gridtolerance="10"
     guidetolerance="10"
     inkscape:pageopacity="0"
     inkscape:pageshadow="2"
     inkscape:window-width="1366"
     inkscape:window-height="743"
     id="namedview4029"
     showgrid="false"
     inkscape:zoom="0.34377276"
     inkscape:cx="1040.4209"
     inkscape:cy="573.66315"
     inkscape:window-x="0"
     inkscape:window-y="0"
     inkscape:window-maximized="1"
     inkscape:current-layer="svg3991" />
  <g
     id="g4035">
    <path
       id="path3997"
       d="M 338.8 89.2 Q 349.0 77.5 352.0 78.0 Q 355.0 78.5 359.5 81.5 Q 364.0 84.5 377.0 102.0 Q 390.0 119.5 394.2 125.2 Q 398.5 131.0 403.5 137.5 Q 408.5 144.0 411.5 150.0 Q 414.5 156.0 418.0 160.5 Q 421.5 165.0 423.5 169.0 Q 425.5 173.0 429.5 179.5 Q 433.5 186.0 437.0 193.0 Q 440.5 200.0 444.5 206.5 Q 448.5 213.0 451.0 218.5 Q 453.5 224.0 457.8 231.8 Q 462.0 239.5 465.2 248.8 Q 468.5 258.0 472.0 264.5 Q 475.5 271.0 479.5 283.0 Q 483.5 295.0 486.2 300.8 Q 489.0 306.5 491.8 316.2 Q 494.5 326.0 499.0 339.0 Q 503.5 352.0 506.5 366.5 Q 509.5 381.0 513.0 393.5 Q 516.5 406.0 523.5 451.0 Q 530.5 496.0 532.0 515.0 Q 533.5 534.0 533.5 624.0 Q 533.5 714.0 530.5 746.0 Q 527.5 778.0 524.0 819.5 Q 520.5 861.0 517.0 883.5 Q 513.5 906.0 510.0 942.0 Q 506.5 978.0 504.0 996.0 Q 501.5 1014.0 498.0 1044.0 Q 494.5 1074.0 493.5 1082.5 Q 492.5 1091.0 490.8 1092.5 Q 489.0 1094.0 488.8 1095.0 Q 488.5 1096.0 485.8 1096.8 Q 483.0 1097.5 366.0 1099.0 Q 249.0 1100.5 245.5 1099.5 Q 242.0 1098.5 239.0 1096.0 Q 236.0 1093.5 233.2 1072.2 Q 230.5 1051.0 227.5 1037.5 Q 224.5 1024.0 221.5 1000.5 Q 218.5 977.0 214.5 956.0 Q 210.5 935.0 207.5 910.0 Q 204.5 885.0 200.5 863.5 Q 196.5 842.0 194.0 817.5 Q 191.5 793.0 187.0 755.5 Q 182.5 718.0 181.5 703.5 Q 180.5 689.0 180.0 610.0 Q 179.5 531.0 181.5 507.0 Q 183.5 483.0 188.5 448.0 Q 193.5 413.0 196.5 401.0 Q 199.5 389.0 204.0 368.0 Q 208.5 347.0 211.0 341.0 Q 213.5 335.0 217.0 322.0 Q 220.5 309.0 224.0 300.5 Q 227.5 292.0 231.5 279.5 Q 235.5 267.0 238.2 262.2 Q 241.0 257.5 244.2 249.2 Q 247.5 241.0 251.5 233.0 Q 255.5 225.0 259.5 215.0 Q 263.5 205.0 265.2 203.5 Q 267.0 202.0 268.2 199.5 Q 269.5 197.0 273.2 188.0 Q 277.0 179.0 278.0 179.0 Q 279.0 179.0 279.5 177.8 Q 280.0 176.5 283.0 170.8 Q 286.0 165.0 287.0 165.0 Q 288.0 165.0 288.8 161.5 Q 289.5 158.0 293.0 154.0 Q 296.5 150.0 299.0 145.0 Q 301.5 140.0 306.5 133.5 Q 311.5 127.0 314.8 120.5 Q 318.0 114.0 319.0 114.0 Q 320.0 114.0 321.8 111.5 Q 323.5 109.0 326.0 105.0 Q 328.5 101.0 338.8 89.2 z  M 375.0 214.2 L 388.0 219.0 L 392.8 221.0 Q 397.5 223.0 410.0 235.5 Q 422.5 248.0 429.0 263.5 Q 435.5 279.0 435.5 293.5 Q 435.5 308.0 432.0 316.5 Q 428.5 325.0 425.2 332.8 Q 422.0 340.5 414.0 349.0 Q 406.0 357.5 401.5 360.5 Q 397.0 363.5 396.8 363.8 L 396.5 364.0 L 396.2 364.2 L 396.0 364.5 L 395.8 364.8 L 395.5 365.0 L 395.2 365.2 L 395.0 365.5 L 394.8 365.8 L 394.5 366.0 L 394.2 366.2 L 394.0 366.5 L 393.8 366.8 L 393.5 367.0 L 393.2 367.2 L 393.0 367.5 L 392.0 368.0 L 391.0 368.5 L 390.0 368.8 L 389.0 369.0 L 388.0 369.2 Q 387.0 369.5 377.0 372.0 Q 367.0 374.5 355.0 375.0 Q 343.0 375.5 330.0 372.5 Q 317.0 369.5 306.0 362.0 Q 295.0 354.5 291.5 349.2 Q 288.0 344.0 287.0 344.0 Q 286.0 344.0 281.2 337.0 Q 276.5 330.0 273.5 318.5 Q 270.5 307.0 270.0 294.5 Q 269.5 282.0 272.0 271.0 Q 274.5 260.0 277.2 254.8 Q 280.0 249.5 285.5 241.8 Q 291.0 234.0 292.0 233.8 Q 293.0 233.5 298.5 228.5 Q 304.0 223.5 308.0 221.5 Q 312.0 219.5 323.0 215.0 Q 334.0 210.5 348.0 210.0 Q 362.0 209.5 375.0 214.2 z  M 350.5 401.0 Q 365.0 400.5 369.0 401.5 Q 373.0 402.5 387.5 409.0 Q 402.0 415.5 410.5 424.0 Q 419.0 432.5 425.8 444.8 Q 432.5 457.0 434.5 462.5 Q 436.5 468.0 436.5 485.0 Q 436.5 502.0 434.0 508.5 Q 431.5 515.0 428.0 523.0 Q 424.5 531.0 417.2 538.8 Q 410.0 546.5 406.5 548.2 Q 403.0 550.0 403.0 551.0 Q 403.0 552.0 397.8 555.5 Q 392.5 559.0 382.8 561.8 Q 373.0 564.5 357.0 565.0 Q 341.0 565.5 330.0 563.0 Q 319.0 560.5 307.5 552.0 Q 296.0 543.5 287.0 531.0 Q 278.0 518.5 275.8 510.8 Q 273.5 503.0 273.0 486.0 Q 272.5 469.0 274.0 461.0 Q 275.5 453.0 279.8 446.2 Q 284.0 439.5 286.2 435.2 Q 288.5 431.0 291.8 427.8 Q 295.0 424.5 298.5 420.8 Q 302.0 417.0 303.5 416.2 Q 305.0 415.5 314.5 411.0 Q 324.0 406.5 330.0 404.0 Q 336.0 401.5 350.5 401.0 z  M 372.5 595.8 L 380.0 598.0 L 392.2 603.0 Q 404.5 608.0 414.0 617.0 Q 423.5 626.0 430.5 637.5 Q 437.5 649.0 439.0 656.5 Q 440.5 664.0 440.0 680.0 Q 439.5 696.0 437.0 703.0 Q 434.5 710.0 430.5 716.0 Q 426.5 722.0 422.2 727.8 Q 418.0 733.5 417.5 734.8 Q 417.0 736.0 408.2 742.5 Q 399.5 749.0 399.2 749.2 L 399.0 749.5 L 398.8 749.8 L 398.5 750.0 L 398.2 750.2 L 398.0 750.5 L 397.0 751.0 L 396.0 751.5 L 395.8 751.8 L 395.5 752.0 L 395.2 752.2 L 395.0 752.5 L 394.0 753.0 L 393.0 753.5 L 392.0 753.8 L 391.0 754.0 L 390.0 754.2 Q 389.0 754.5 380.0 756.5 Q 371.0 758.5 360.0 759.0 Q 349.0 759.5 335.0 756.5 Q 321.0 753.5 316.0 750.2 Q 311.0 747.0 311.0 746.0 Q 311.0 745.0 310.0 744.8 Q 309.0 744.5 301.5 738.0 Q 294.0 731.5 291.2 727.8 Q 288.5 724.0 284.2 717.2 Q 280.0 710.5 277.2 702.2 Q 274.5 694.0 274.5 676.5 Q 274.5 659.0 276.0 653.0 Q 277.5 647.0 284.0 636.0 Q 290.5 625.0 299.8 616.2 Q 309.0 607.5 318.5 603.5 Q 328.0 599.5 334.0 597.0 Q 340.0 594.5 352.5 594.0 Q 365.0 593.5 372.5 595.8 z  "
       style="opacity:1;fill:#BEBEBE;fill-rule:evenodd;stroke:#BEBEBE;stroke-width:0.5px;stroke-linecap:butt;stroke-linejoin:miter;stroke-opacity:1;" />
    <path
       id="path4003"
       d="M 583.0 844.0 L 584.0 843.5 L 591.5 846.0 Q 599.0 848.5 605.0 854.0 Q 611.0 859.5 623.2 871.8 Q 635.5 884.0 645.5 895.5 Q 655.5 907.0 661.0 918.5 Q 666.5 930.0 669.0 937.0 Q 671.5 944.0 671.5 982.0 Q 671.5 1020.0 669.0 1030.5 Q 666.5 1041.0 661.5 1066.0 Q 656.5 1091.0 654.0 1096.0 Q 651.5 1101.0 648.5 1113.0 Q 645.5 1125.0 642.2 1134.5 Q 639.0 1144.0 638.0 1144.0 Q 637.0 1144.0 633.2 1158.5 Q 629.5 1173.0 626.8 1177.8 Q 624.0 1182.5 620.2 1195.2 Q 616.5 1208.0 614.2 1210.8 Q 612.0 1213.5 606.0 1213.5 Q 600.0 1213.5 596.0 1210.8 Q 592.0 1208.0 590.2 1202.0 Q 588.5 1196.0 584.8 1188.5 Q 581.0 1181.0 580.0 1181.0 Q 579.0 1181.0 576.8 1174.5 Q 574.5 1168.0 570.2 1161.2 Q 566.0 1154.5 562.8 1146.8 Q 559.5 1139.0 555.8 1133.2 Q 552.0 1127.5 549.8 1120.2 Q 547.5 1113.0 548.5 1090.0 Q 549.5 1067.0 553.5 1044.0 Q 557.5 1021.0 560.5 991.0 Q 563.5 961.0 567.5 939.0 Q 571.5 917.0 574.0 891.5 Q 576.5 866.0 577.0 861.0 Q 577.5 856.0 579.8 850.2 Q 582.0 844.5 583.0 844.0 z  "
       style="opacity:1;fill:#FC0000;fill-rule:evenodd;stroke:#FC0000;stroke-width:0.5px;stroke-linecap:butt;stroke-linejoin:miter;stroke-opacity:1;" />
    <path
       id="path4005"
       d="M 136.5 1229.0 L 134.5 1233.0 L 134.2 1233.2 L 134.0 1233.5 L 133.8 1233.8 L 133.5 1234.0 L 133.2 1234.2 L 133.0 1234.5 L 132.8 1234.8 L 132.5 1235.0 L 132.2 1235.2 L 132.0 1235.5 L 130.0 1235.5 L 128.0 1235.5 L 127.0 1235.0 L 126.0 1234.5 L 125.8 1234.2 L 125.5 1234.0 L 125.2 1233.8 Q 125.0 1233.5 119.5 1225.5 Q 114.0 1217.5 109.8 1204.8 Q 105.5 1192.0 102.5 1187.0 Q 99.5 1182.0 96.5 1172.0 Q 93.5 1162.0 90.0 1154.5 Q 86.5 1147.0 82.5 1132.0 Q 78.5 1117.0 76.0 1111.5 Q 73.5 1106.0 70.5 1094.0 Q 67.5 1082.0 64.0 1066.5 Q 60.5 1051.0 58.0 1039.5 Q 55.5 1028.0 55.0 1001.0 Q 54.5 974.0 55.5 965.5 Q 56.5 957.0 58.5 952.0 Q 60.5 947.0 64.5 937.5 Q 68.5 928.0 71.8 924.2 Q 75.0 920.5 77.8 916.8 Q 80.5 913.0 87.0 905.5 Q 93.5 898.0 110.2 881.2 Q 127.0 864.5 133.5 864.5 Q 140.0 864.5 143.2 867.8 Q 146.5 871.0 150.0 899.5 Q 153.5 928.0 157.5 947.0 Q 161.5 966.0 164.5 992.0 Q 167.5 1018.0 171.0 1032.5 Q 174.5 1047.0 178.5 1079.0 Q 182.5 1111.0 183.0 1120.5 Q 183.5 1130.0 180.5 1139.0 Q 177.5 1148.0 174.0 1153.5 Q 170.5 1159.0 167.0 1168.0 Q 163.5 1177.0 160.8 1181.2 Q 158.0 1185.5 152.8 1197.2 Q 147.5 1209.0 143.0 1217.0 Q 138.5 1225.0 136.5 1229.0 z  "
       style="opacity:1;fill:#FC0000;fill-rule:evenodd;stroke:#FC0000;stroke-width:0.5px;stroke-linecap:butt;stroke-linejoin:miter;stroke-opacity:1;" />
    <path
       sodipodi:nodetypes="ccscccccscscscssccccssssssssssssscccccsscccccscscscccssssssccsssscssccccccccsscccccccccccccccccccccccccccccsscssccccccsccscssscssssccccccsscccccccccccccccsssccccccccccccccccccccccssssscccssscssccsccssssssccccccsscscsssccsssssssssssccssssccssccssssscccccscccssscssssssssccssccssssssssssssscccssscsssssssssssssssssccsscccsccscssscscscscsscsssssssscsccccscccscccccsssssscssccccccccccccccccccscssssssssssssccscscsssssssssccssccccccccccssccccscscccscscsscscccccccccccccccccccccccsscsscsscc"
       inkscape:connector-curvature="0"
       id="path4007"
       d="m 352.5,0 c 7.13506,-0.15757164 15.48268,6.4342088 25.3,16.2 4.46667,4.533333 8.7,8.966667 12.7,13.3 4,4.333333 6.76667,7.833333 8.3,10.5 1.46667,2.666667 3.46667,5.166667 6,7.5 2.46667,2.333333 5.6,6.1 9.4,11.3 3.86667,5.133333 6.73333,8.8 8.6,11 1.8,2.133333 4.13333,5.133333 7,9 2.8,3.8 6.2,8.533333 10.2,14.2 4,5.666667 7.93333,11.6 11.8,17.8 3.8,6.13333 7.03333,11.03333 9.7,14.7 2.66667,3.66667 4.43333,6.83333 5.3,9.5 0.8,2.66667 1.53333,4 2.2,4 0.66667,0 2.73333,3 6.2,9 3.53333,6 5.96667,10.33333 7.3,13 1.33333,2.66667 3.33333,5.83333 6,9.5 2.66667,3.66667 5.1,8.23333 7.3,13.7 2.13333,5.53333 4.26667,9.86667 6.4,13 2.2,3.2 4.4,7.73333 6.6,13.6 2.13333,5.8 4.46667,10.6 7,14.4 2.46667,3.86667 4.86667,9.3 7.2,16.3 2.33333,7 4.66667,12.83333 7,17.5 2.33333,4.66667 4.66667,11 7,19 2.33333,8 4.66667,14.66667 7,20 2.33333,5.33333 4.66667,12.66667 7,22 2.33333,9.33333 4.5,16.5 6.5,21.5 2,5 4.16667,13.83333 6.5,26.5 2.33333,12.66667 4.66667,23 7,31 2.33333,8 4.83333,22.5 7.5,43.5 2.66667,21 4.83333,37 6.5,48 1.66667,11 3,29.83333 4,56.5 1,26.66667 1.16667,62.5 0.5,107.5 -0.66667,45 -1.33333,74.5 -2,88.5 -0.66667,14 0.1,23.16667 2.3,27.5 2.13333,4.33333 3.8,6.83333 5,7.5 1.13333,0.66667 1.8,1.33333 2,2 0.13333,0.66667 2.03333,1.93333 5.7,3.8 3.66667,1.8 9.1,5.6 16.3,11.4 7.13333,5.86667 13.36667,10.96667 18.7,15.3 5.33333,4.33333 10.83333,9.16667 16.5,14.5 5.66667,5.33333 8.6,8.33333 8.8,9 0.13333,0.66667 1.93333,2.5 5.4,5.5 3.53333,3 6.4,5.76667 8.6,8.3 2.13333,2.46667 3.53333,3.8 4.2,4 0.66667,0.13333 2.73333,2.53333 6.2,7.2 3.53333,4.66667 6.46667,8.66667 8.8,12 2.33333,3.33333 3.93333,6.16667 4.8,8.5 0.8,2.33333 1.53333,3.5 2.2,3.5 0.66667,0 2.4,2.33333 5.2,7 2.86667,4.66667 5.46667,10.33333 7.8,17 2.33333,6.66667 3.37155,11.62845 5.17155,16.94225 4.8682,46.27813 2.62958,70.3562 0.78577,105.80295 -1.30488,10.3894 -2.69065,24.5215 -4.15732,30.0548 -1.53333,5.4667 -3.46667,14.2 -5.8,26.2 -2.33333,12 -4.5,20.3333 -6.5,25 -2,4.6667 -4.16667,11.8333 -6.5,21.5 -2.33333,9.6667 -4.66667,17 -7,22 -2.33333,5 -4.66667,11.6667 -7,20 -2.33333,8.3333 -4.66667,14.6667 -7,19 -2.33333,4.3333 -4.6,10.1 -6.8,17.3 -2.13333,7.1333 -4.6,13.6 -7.4,19.4 -2.86667,5.8667 -5.3,11.8 -7.3,17.8 -2,6 -4,10.5 -6,13.5 -2,3 -4.16667,7.8333 -6.5,14.5 -2.33333,6.6667 -4.83333,12.1667 -7.5,16.5 -2.66667,4.3333 -5.43333,8.5667 -8.3,12.7 -2.8,4.2 -5.7,7.1333 -8.7,8.8 -3,1.6667 -7.5,2.3333 -13.5,2 -6,-0.3333 -11.93333,-3.6 -17.8,-9.8 -5.8,-6.1333 -9.8,-11.9333 -12,-17.4 -2.13333,-5.5333 -3.53333,-8.4 -4.2,-8.6 -0.66667,-0.1333 -2.4,-3.0333 -5.2,-8.7 -2.86667,-5.6667 -4.86667,-9.9 -6,-12.7 -1.2,-2.8667 -3.2,-6.5333 -6,-11 -2.86667,-4.5333 -5.2,-9.0667 -7,-13.6 -1.86667,-4.4667 -4.06667,-8.6 -6.6,-12.4 -2.46667,-3.8667 -4.36667,-7.6333 -5.7,-11.3 -1.33333,-3.6667 -2.16667,-5.8333 -2.5,-6.5 l -0.5,-1 -0.3,-0.2 -0.2,-0.3 -0.2,-0.3 -0.3,-0.2 -0.3,-0.2 -0.2,-0.3 -0.2,-0.3 -0.3,-0.2 -0.3,-1 -0.2,-1 -2,0.2 -2,0.3 -0.2,0.3 -0.3,0.2 -0.3,0.2 -0.2,0.3 -0.2,0.3 -0.3,0.2 -0.3,0.2 -0.2,0.3 -0.2,0.3 -0.3,0.2 -0.3,0.2 -0.2,0.3 -0.2,0.3 -0.3,0.2 -0.5,1 -0.5,1 -3.5,39.5 c -2.33333,26.3333 -4.83333,49.1667 -7.5,68.5 -2.66667,19.3333 -5.43333,30.9333 -8.3,34.8 -2.8,3.8 -5.53333,6.5333 -8.2,8.2 -2.66667,1.6667 -4.83333,2.6667 -6.5,3 -1.66667,0.3333 -3.33333,0.6 -5,0.8 l -2.5,0.2 0,-0.2 0,-0.3 -3.5,-0.5 -3.5,-0.5 -2,-0.5 c -1.33333,-0.3333 -6.73333,-5.6 -16.2,-15.8 -9.53333,-10.1333 -17.4,-18.9333 -23.6,-26.4 -6.13333,-7.5333 -10.86667,-11.3 -14.2,-11.3 -3.33333,0 -6.73333,1.7667 -10.2,5.3 -3.53333,3.4667 -6.13333,6.8667 -7.8,10.2 -1.66667,3.3333 -3.5,6.5 -5.5,9.5 -2,3 -4.5,6.8333 -7.5,11.5 -3,4.6667 -5.6,8.2667 -7.8,10.8 -2.13333,2.4667 -5.2,4.8667 -9.2,7.2 -4,2.3333 -7.83333,3.8333 -11.5,4.5 -3.66667,0.6667 -6.83333,0.5 -9.5,-0.5 -2.66667,-1 -5.83333,-1.8333 -9.5,-2.5 -3.66667,-0.6667 -9.43333,-4.7667 -17.3,-12.3 -7.8,-7.4667 -12.26667,-11.4667 -13.4,-12 -1.2,-0.4667 -2.06667,-1.1333 -2.6,-2 -0.46667,-0.8 -1.46667,-1.3667 -3,-1.7 -1.46667,-0.3333 -2.26667,-0.8333 -2.4,-1.5 -0.2,-0.6667 -0.53333,-0.7333 -1,-0.2 -0.53333,0.4667 -1.3,0.8667 -2.3,1.2 -1,0.3333 -2.5,1.3333 -4.5,3 -2,1.6667 -5.93333,5.9333 -11.8,12.8 -5.8,6.8 -10.46667,11.9333 -14,15.4 l -5.2,5.3 -0.2,0.3 -0.3,0.2 -0.5,1 -0.5,1 -0.3,0.2 -0.2,0.3 -1,0.5 -1,0.5 0,0.3 0,0.2 c -5.68328,2.4961 -21.79323,7.1432 -39.00026,-0.1364 -9.3267,-4.6884 -9.04371,-7.7793 -12.79974,-19.6636 -1.8,-5.4667 -2.86667,-19.0333 -3.2,-40.7 -0.33333,-21.6667 -0.16667,-37.5 0.5,-47.5 0.66667,-10 0.83333,-16.6667 0.5,-20 l -0.5,-5 -0.3,-0.2 -0.2,-0.3 -0.2,-0.3 -0.3,-0.2 -0.3,-1 -0.2,-1 -2,0.2 -2,0.3 -0.2,0.3 -0.3,0.2 -0.3,0.2 -0.2,0.3 -0.2,0.3 -0.3,0.2 -0.3,0.2 -0.2,0.3 -0.2,0.3 -0.3,0.2 -0.3,0.2 -0.2,0.3 -0.2,0.3 c -0.2,0.1333 -0.46667,0.7 -0.8,1.7 -0.33333,1 -2.16667,3.5 -5.5,7.5 -3.33333,4 -6.16667,9.3333 -8.5,16 -2.33333,6.6667 -4.5,11.3333 -6.5,14 -2,2.6667 -4,6.5 -6,11.5 -2,5 -4.56667,10.2333 -7.7,15.7 -3.2,5.5333 -5.96667,10.4 -8.3,14.6 -2.33333,4.1333 -4.33333,6.6 -6,7.4 -1.66667,0.8667 -5.16667,1.8 -10.5,2.8 -5.33333,1 -10.16667,1 -14.5,0 -4.33333,-1 -8.66667,-4 -13,-9 -4.33333,-5 -7.433333,-9.9333 -9.3,-14.8 -1.8,-4.8 -4.033333,-9.3667 -6.7,-13.7 -2.666667,-4.3333 -5.166667,-9.8333 -7.5,-16.5 -2.333333,-6.6667 -4.6,-11.6 -6.8,-14.8 -2.133333,-3.1333 -4.366667,-8.4667 -6.7,-16 -2.333333,-7.4667 -3.833333,-11.2 -4.5,-11.2 -0.666667,0 -1.666667,-1.2667 -3,-3.8 -1.333333,-2.4667 -3.266667,-7.4667 -5.8,-15 -2.466667,-7.4667 -4.866667,-13.5333 -7.2,-18.2 -2.333333,-4.6667 -4.5,-10.5 -6.5,-17.5 -2,-7 -4.166667,-13 -6.5,-18 -2.333333,-5 -4.666667,-11.8333 -7,-20.5 -2.333333,-8.6667 -4.666667,-16.1667 -7,-22.5 -2.333333,-6.3333 -4.666667,-15.1667 -7,-26.5 -2.333333,-11.3333 -4.333333,-19.5 -6,-24.5 C 3.6050691,1023.7856 -0.33044428,999.09205 8,933 l 0.5,-1 0.3,-0.2 0.2,-0.3 0.2,-0.3 c 0.2,-0.13333 1.3,-3.36667 3.3,-9.7 2,-6.33333 4.166667,-11 6.5,-14 2.333333,-3 5.066667,-7.5 8.2,-13.5 3.2,-6 5.966667,-9.83333 8.3,-11.5 2.333333,-1.66667 3.9,-3.33333 4.7,-5 0.866667,-1.66667 3.633333,-5.16667 8.3,-10.5 4.666667,-5.33333 11.666667,-12.66667 21,-22 9.333333,-9.33333 16.333333,-15.83333 21,-19.5 4.666667,-3.66667 8.766667,-7.1 12.3,-10.3 3.46667,-3.13333 9.26667,-8.13333 17.4,-15 8.2,-6.8 12.46667,-14.53333 12.8,-23.2 0.33333,-8.66667 -0.33333,-18.16667 -2,-28.5 -1.66667,-10.33333 -3.16667,-26.16667 -4.5,-47.5 -1.33333,-21.33333 -2.16667,-51.66667 -2.5,-91 -0.33333,-39.33333 0,-69.33333 1,-90 1,-20.66667 2.16667,-34.83333 3.5,-42.5 1.33333,-7.66667 3.5,-22.83333 6.5,-45.5 3,-22.66667 5.5,-37.16667 7.5,-43.5 2,-6.33333 4.33333,-16.33333 7,-30 2.66667,-13.66667 4.83333,-22.5 6.5,-26.5 1.66667,-4 4,-11.83333 7,-23.5 3,-11.66667 5.4,-19.23333 7.2,-22.7 1.86667,-3.53333 4.2,-10.06667 7,-19.6 2.86667,-9.46667 5.46667,-16.03333 7.8,-19.7 2.33333,-3.66667 4.5,-8.83333 6.5,-15.5 2,-6.66667 4,-11.5 6,-14.5 2,-3 4.16667,-7.5 6.5,-13.5 2.33333,-6 4.93333,-11.26667 7.8,-15.8 2.8,-4.46667 4.93333,-8.8 6.4,-13 1.53333,-4.13333 3.63333,-8.03333 6.3,-11.7 2.66667,-3.66667 5.5,-8.66667 8.5,-15 3,-6.33333 5.73333,-10.66667 8.2,-13 2.53333,-2.33333 4.2,-5 5,-8 0.86667,-3 2.46667,-6.16667 4.8,-9.5 2.33333,-3.33333 4.66667,-6.83333 7,-10.5 2.33333,-3.66667 4.66667,-7.166667 7,-10.5 2.33333,-3.333333 4.66667,-6.833333 7,-10.5 2.33333,-3.666667 5,-7.333333 8,-11 3,-3.666667 5.73333,-7.666667 8.2,-12 2.53333,-4.333333 4.13333,-6.566667 4.8,-6.7 0.66667,-0.2 1.5,-1.066667 2.5,-2.6 1,-1.466667 1.83333,-2.266667 2.5,-2.4 0.66667,-0.2 1.4,-1.066667 2.2,-2.6 0.86667,-1.466667 3.8,-5.366667 8.8,-11.7 C 314,30.166667 319.16667,24 324.5,18 336.86116,5.0824859 346.6332,-0.34070875 352.5,0 z M 338.8,89.2 C 345.6,81.4 350,77.666667 352,78 c 2,0.333333 4.5,1.5 7.5,3.5 3,2 8.83333,8.833333 17.5,20.5 8.66667,11.66667 14.4,19.4 17.2,23.2 2.86667,3.86667 5.96667,7.96667 9.3,12.3 3.33333,4.33333 6,8.5 8,12.5 2,4 4.16667,7.5 6.5,10.5 2.33333,3 4.16667,5.83333 5.5,8.5 1.33333,2.66667 3.33333,6.16667 6,10.5 2.66667,4.33333 5.16667,8.83333 7.5,13.5 2.33333,4.66667 4.83333,9.16667 7.5,13.5 2.66667,4.33333 4.83333,8.33333 6.5,12 1.66667,3.66667 3.93333,8.1 6.8,13.3 2.8,5.13333 5.26667,10.8 7.4,17 2.2,6.13333 4.46667,11.36667 6.8,15.7 2.33333,4.33333 4.83333,10.5 7.5,18.5 2.66667,8 4.9,13.93333 6.7,17.8 1.86667,3.8 3.73333,8.93333 5.6,15.4 1.8,6.53333 4.2,14.13333 7.2,22.8 3,8.66667 5.5,17.83333 7.5,27.5 2,9.66667 4.16667,18.66667 6.5,27 2.33333,8.33333 5.83333,27.5 10.5,57.5 4.66667,30 7.5,51.33333 8.5,64 1,12.66667 1.5,49 1.5,109 0,60 -1,100.66667 -3,122 -2,21.33333 -4.16667,45.83333 -6.5,73.5 -2.33333,27.66667 -4.66667,49 -7,64 -2.33333,15 -4.66667,34.5 -7,58.5 -2.33333,24 -4.33333,42 -6,54 -1.66667,12 -3.66667,28 -6,48 -2.33333,20 -3.83333,32.8333 -4.5,38.5 -0.66667,5.6667 -1.56667,9 -2.7,10 -1.2,1 -1.86667,1.8333 -2,2.5 -0.2,0.6667 -1.2,1.2667 -3,1.8 -1.86667,0.4667 -41.8,1.2 -119.8,2.2 -78,1 -118.16667,1.1667 -120.5,0.5 -2.33333,-0.6667 -4.5,-1.8333 -6.5,-3.5 -2,-1.6667 -3.93333,-9.6 -5.8,-23.8 -1.8,-14.1333 -3.7,-25.7 -5.7,-34.7 -2,-9 -4,-21.3333 -6,-37 -2,-15.66667 -4.33333,-30.5 -7,-44.5 -2.66667,-14 -5,-29.33333 -7,-46 -2,-16.66667 -4.33333,-32.16667 -7,-46.5 -2.66667,-14.33333 -4.83333,-29.66667 -6.5,-46 -1.66667,-16.33333 -4,-37 -7,-62 -3,-25 -4.83333,-42.33333 -5.5,-52 -0.66667,-9.66667 -1.16667,-40.83333 -1.5,-93.5 -0.33333,-52.66667 0.16667,-87 1.5,-103 1.33333,-16 3.66667,-35.66667 7,-59 3.33333,-23.33333 6,-39 8,-47 2,-8 4.5,-19 7.5,-33 3,-14 5.33333,-23 7,-27 1.66667,-4 3.66667,-10.33333 6,-19 2.33333,-8.66667 4.66667,-15.83333 7,-21.5 2.33333,-5.66667 4.83333,-12.66667 7.5,-21 2.66667,-8.33333 4.9,-14.1 6.7,-17.3 1.86667,-3.13333 3.86667,-7.46667 6,-13 2.2,-5.46667 4.63333,-10.86667 7.3,-16.2 2.66667,-5.33333 5.33333,-11.33333 8,-18 2.66667,-6.66667 4.56667,-10.5 5.7,-11.5 1.2,-1 2.2,-2.33333 3,-4 0.86667,-1.66667 2.53333,-5.5 5,-11.5 2.53333,-6 4.13333,-9 4.8,-9 0.66667,0 1.16667,-0.4 1.5,-1.2 0.33333,-0.86667 1.5,-3.2 3.5,-7 2,-3.86667 3.33333,-5.8 4,-5.8 0.66667,0 1.26667,-1.16667 1.8,-3.5 0.46667,-2.33333 1.86667,-4.83333 4.2,-7.5 2.33333,-2.66667 4.33333,-5.66667 6,-9 1.66667,-3.33333 4.16667,-7.16667 7.5,-11.5 3.33333,-4.33333 6.1,-8.66667 8.3,-13 2.13333,-4.33333 3.53333,-6.5 4.2,-6.5 0.66667,0 1.6,-0.83333 2.8,-2.5 1.13333,-1.66667 2.53333,-3.83333 4.2,-6.5 1.66667,-2.66667 5.93333,-7.933333 12.8,-15.8 z M 583,844 l 1,-0.5 7.5,2.5 c 5,1.66667 9.5,4.33333 13.5,8 4,3.66667 10.06667,9.6 18.2,17.8 8.2,8.13333 15.63333,16.03333 22.3,23.7 6.66667,7.66667 11.83333,15.33333 15.5,23 3.66667,7.66667 6.33333,13.83333 8,18.5 1.66667,4.66667 2.5,19.66667 2.5,45 0,25.3333 -0.83333,41.5 -2.5,48.5 -1.66667,7 -4.16667,18.8333 -7.5,35.5 -3.33333,16.6667 -5.83333,26.6667 -7.5,30 -1.66667,3.3333 -3.5,9 -5.5,17 -2,8 -4.1,15.1667 -6.3,21.5 -2.13333,6.3333 -3.53333,9.5 -4.2,9.5 -0.66667,0 -2.26667,4.8333 -4.8,14.5 -2.46667,9.6667 -4.6,16.1 -6.4,19.3 -1.86667,3.1333 -4.06667,8.9333 -6.6,17.4 -2.46667,8.5333 -4.46667,13.7333 -6,15.6 -1.46667,1.8 -4.2,2.7 -8.2,2.7 -4,0 -7.33333,-0.9 -10,-2.7 -2.66667,-1.8667 -4.6,-4.8 -5.8,-8.8 -1.13333,-4 -2.93333,-8.5 -5.4,-13.5 -2.53333,-5 -4.13333,-7.5 -4.8,-7.5 -0.66667,0 -1.73333,-2.1667 -3.2,-6.5 -1.53333,-4.3333 -3.73333,-8.7667 -6.6,-13.3 -2.8,-4.4667 -5.26667,-9.2667 -7.4,-14.4 -2.2,-5.2 -4.53333,-9.7333 -7,-13.6 -2.53333,-3.8 -4.53333,-8.1333 -6,-13 -1.53333,-4.8 -1.96667,-14.8667 -1.3,-30.2 0.66667,-15.3333 2.33333,-30.6667 5,-46 2.66667,-15.3333 5,-33 7,-53 2,-20 4.33333,-37.33333 7,-52 2.66667,-14.66667 4.83333,-30.5 6.5,-47.5 1.66667,-17 2.66667,-27.16667 3,-30.5 0.33333,-3.33333 1.26667,-6.93333 2.8,-10.8 1.46667,-3.8 2.53333,-5.86667 3.2,-6.2 z m -446.5,385 -2,4 -0.3,0.2 -0.2,0.3 -0.2,0.3 -0.3,0.2 -0.3,0.2 -0.2,0.3 -0.2,0.3 -0.3,0.2 -0.3,0.2 -0.2,0.3 -2,0 -2,0 -1,-0.5 -1,-0.5 -0.2,-0.3 -0.3,-0.2 -0.3,-0.2 c -0.13333,-0.2 -2.03333,-2.9667 -5.7,-8.3 -3.66667,-5.3333 -6.9,-12.2333 -9.7,-20.7 -2.86667,-8.5333 -5.3,-14.4667 -7.3,-17.8 -2,-3.3333 -4,-8.3333 -6,-15 -2,-6.6667 -4.166667,-12.5 -6.5,-17.5 -2.333333,-5 -4.833333,-12.5 -7.5,-22.5 -2.666667,-10 -4.833333,-16.8333 -6.5,-20.5 -1.666667,-3.6667 -3.5,-9.5 -5.5,-17.5 -2,-8 -4.166667,-17.1667 -6.5,-27.5 -2.333333,-10.3333 -4.333333,-19.3333 -6,-27 -1.666667,-7.6667 -2.666667,-20.5 -3,-38.5 -0.333333,-18 -0.166667,-29.83333 0.5,-35.5 0.666667,-5.66667 1.666667,-10.16667 3,-13.5 1.333333,-3.33333 3.333333,-8.16667 6,-14.5 2.666667,-6.33333 5.1,-10.76667 7.3,-13.3 2.133333,-2.46667 4.133333,-4.93333 6,-7.4 1.8,-2.53333 4.866667,-6.3 9.2,-11.3 4.333333,-5 12.066667,-13.1 23.2,-24.3 11.2,-11.13333 18.96667,-16.7 23.3,-16.7 4.33333,0 7.56667,1.1 9.7,3.3 2.2,2.13333 4.46667,12.7 6.8,31.7 2.33333,19 4.83333,34.83333 7.5,47.5 2.66667,12.66667 5,27.66667 7,45 2,17.3333 4.16667,30.8333 6.5,40.5 2.33333,9.6667 4.83333,25.1667 7.5,46.5 2.66667,21.3333 4.16667,35.1667 4.5,41.5 0.33333,6.3333 -0.5,12.5 -2.5,18.5 -2,6 -4.16667,10.8333 -6.5,14.5 -2.33333,3.6667 -4.66667,8.5 -7,14.5 -2.33333,6 -4.4,10.4 -6.2,13.2 -1.86667,2.8667 -4.53333,8.2 -8,16 -3.53333,7.8667 -6.8,14.4667 -9.8,19.8 -3,5.3333 -5.16667,9.3333 -6.5,12 z m 324.3,22.8 -0.3,0.2 -0.3,0.2 -0.2,0.3 -0.2,0.3 -0.3,0.2 -0.3,0.2 -0.2,0.3 -1,0 -1,0 -1.5,-0.5 c -1,-0.3333 -2.66667,-0.8333 -5,-1.5 -2.33333,-0.6667 -4,-1.5667 -5,-2.7 -1,-1.2 -1.83333,-1.8667 -2.5,-2 -0.66667,-0.2 -1.4,-1.0667 -2.2,-2.6 -0.86667,-1.4667 -4.2,-5.1333 -10,-11 -5.86667,-5.8 -12.46667,-8.7 -19.8,-8.7 -7.33333,0 -12.4,1.2333 -15.2,3.7 -2.86667,2.5333 -5.46667,5.4667 -7.8,8.8 -2.33333,3.3333 -4.93333,6.9333 -7.8,10.8 -2.8,3.8 -5.26667,8.1333 -7.4,13 -2.2,4.8 -4.4,8.4667 -6.6,11 -2.13333,2.4667 -5.2,4.2 -9.2,5.2 -4,1 -6.93333,0.9333 -8.8,-0.2 -1.8,-1.2 -3.36667,-3.1333 -4.7,-5.8 -1.33333,-2.6667 -5.43333,-8.0667 -12.3,-16.2 -6.8,-8.2 -11.53333,-13.1333 -14.2,-14.8 -2.66667,-1.6667 -7.33333,-2.5 -14,-2.5 -6.66667,0 -11.06667,0.9 -13.2,2.7 -2.2,1.8667 -5.96667,5.8 -11.3,11.8 l -8,9 -0.3,0.2 -0.2,0.3 -3.5,0 -3.5,0 -0.2,-0.3 -0.3,-0.2 -0.3,-0.2 -0.2,-0.3 -0.2,-0.3 -0.3,-0.2 -0.3,-0.2 -0.2,-0.3 -0.2,-0.3 -0.3,-0.2 -0.3,-0.2 -0.2,-0.3 -0.2,-0.3 -0.3,-0.2 -0.3,-0.2 -0.2,-0.3 -0.2,-0.3 -0.3,-0.2 2,-39.5 c 1.33333,-26.3333 2.66667,-41.5 4,-45.5 1.33333,-4 3.56667,-7.6 6.7,-10.8 3.2,-3.1333 12.8,-5.0333 28.8,-5.7 16,-0.6667 45.33333,-1 88,-1 42.66667,0 65.4,1.1 68.2,3.3 2.86667,2.1333 4.8,4.8667 5.8,8.2 1,3.3333 1.5,17.8333 1.5,43.5 0,25.6667 -0.43333,39.1 -1.3,40.3 -0.8,1.1333 -1.26667,1.8 -1.4,2 z"
       style="fill:#070000;fill-rule:evenodd;stroke:#070000;stroke-width:0.5px;stroke-linecap:butt;stroke-linejoin:miter;stroke-opacity:1" />
    <path
       id="path4011"
       d="M 460.8 1251.8 L 460.5 1252.0 L 460.2 1252.2 L 460.0 1252.5 L 459.8 1252.8 L 459.5 1253.0 L 459.2 1253.2 L 459.0 1253.5 L 458.0 1253.5 L 457.0 1253.5 L 455.5 1253.0 Q 454.0 1252.5 450.5 1251.5 Q 447.0 1250.5 445.5 1248.8 Q 444.0 1247.0 443.0 1246.8 Q 442.0 1246.5 440.8 1244.2 Q 439.5 1242.0 430.8 1233.2 Q 422.0 1224.5 411.0 1224.5 Q 400.0 1224.5 395.8 1228.2 Q 391.5 1232.0 388.0 1237.0 Q 384.5 1242.0 380.2 1247.8 Q 376.0 1253.5 372.8 1260.8 Q 369.5 1268.0 366.2 1271.8 Q 363.0 1275.5 357.0 1277.0 Q 351.0 1278.5 348.2 1276.8 Q 345.5 1275.0 343.5 1271.0 Q 341.5 1267.0 331.2 1254.8 Q 321.0 1242.5 317.0 1240.0 Q 313.0 1237.5 303.0 1237.5 Q 293.0 1237.5 289.8 1240.2 Q 286.5 1243.0 278.5 1252.0 L 270.5 1261.0 L 270.2 1261.2 L 270.0 1261.5 L 266.5 1261.5 L 263.0 1261.5 L 262.8 1261.2 L 262.5 1261.0 L 262.2 1260.8 L 262.0 1260.5 L 261.8 1260.2 L 261.5 1260.0 L 261.2 1259.8 L 261.0 1259.5 L 260.8 1259.2 L 260.5 1259.0 L 260.2 1258.8 L 260.0 1258.5 L 259.8 1258.2 L 259.5 1258.0 L 259.2 1257.8 L 259.0 1257.5 L 258.8 1257.2 L 258.5 1257.0 L 260.5 1217.5 Q 262.5 1178.0 264.5 1172.0 Q 266.5 1166.0 271.2 1161.2 Q 276.0 1156.5 300.0 1155.5 Q 324.0 1154.5 388.0 1154.5 Q 452.0 1154.5 456.2 1157.8 Q 460.5 1161.0 462.0 1166.0 Q 463.5 1171.0 463.5 1209.5 Q 463.5 1248.0 462.2 1249.8 Q 461.0 1251.5 460.8 1251.8 z  "
       style="opacity:1;fill:#F77E00;fill-rule:evenodd;stroke:#F77E00;stroke-width:0.5px;stroke-linecap:butt;stroke-linejoin:miter;stroke-opacity:1;" />
    <path
       id="path4013"
       d="M 350.5 401.0 Q 365.0 400.5 369.0 401.5 Q 373.0 402.5 387.5 409.0 Q 402.0 415.5 410.5 424.0 Q 419.0 432.5 425.8 444.8 Q 432.5 457.0 434.5 462.5 Q 436.5 468.0 436.5 485.0 Q 436.5 502.0 434.0 508.5 Q 431.5 515.0 428.0 523.0 Q 424.5 531.0 417.2 538.8 Q 410.0 546.5 406.5 548.2 Q 403.0 550.0 403.0 551.0 Q 403.0 552.0 397.8 555.5 Q 392.5 559.0 382.8 561.8 Q 373.0 564.5 357.0 565.0 Q 341.0 565.5 330.0 563.0 Q 319.0 560.5 307.5 552.0 Q 296.0 543.5 287.0 531.0 Q 278.0 518.5 275.8 510.8 Q 273.5 503.0 273.0 486.0 Q 272.5 469.0 274.0 461.0 Q 275.5 453.0 279.8 446.2 Q 284.0 439.5 286.2 435.2 Q 288.5 431.0 291.8 427.8 Q 295.0 424.5 298.5 420.8 Q 302.0 417.0 303.5 416.2 Q 305.0 415.5 314.5 411.0 Q 324.0 406.5 330.0 404.0 Q 336.0 401.5 350.5 401.0 z  M 352.0 437.0 Q 364.0 436.5 371.5 438.5 Q 379.0 440.5 387.5 448.5 Q 396.0 456.5 397.8 461.2 Q 399.5 466.0 401.5 475.0 Q 403.5 484.0 403.0 489.0 Q 402.5 494.0 398.2 505.0 Q 394.0 516.0 393.0 516.2 Q 392.0 516.5 391.5 517.8 Q 391.0 519.0 387.0 521.2 Q 383.0 523.5 376.0 528.0 Q 369.0 532.5 355.0 532.5 Q 341.0 532.5 329.0 524.5 Q 317.0 516.5 311.2 505.8 Q 305.5 495.0 305.5 483.0 Q 305.5 471.0 311.5 461.0 Q 317.5 451.0 321.8 447.5 Q 326.0 444.0 326.2 443.0 Q 326.5 442.0 333.2 439.8 Q 340.0 437.5 352.0 437.0 z  "
       style="opacity:1;fill:#1A1B1B;fill-rule:evenodd;stroke:#1A1B1B;stroke-width:0.5px;stroke-linecap:butt;stroke-linejoin:miter;stroke-opacity:1;" />
    <path
       id="path4015"
       d="M 367.0 246.2 L 371.0 247.0 L 371.0 247.2 L 371.0 247.5 L 372.5 248.0 L 374.0 248.5 L 377.2 250.8 Q 380.5 253.0 387.5 260.5 Q 394.5 268.0 396.5 274.5 Q 398.5 281.0 398.0 296.0 Q 397.5 311.0 394.2 317.2 Q 391.0 323.5 383.5 330.5 Q 376.0 337.5 372.0 339.5 Q 368.0 341.5 367.0 341.8 L 366.0 342.0 L 364.0 342.2 Q 362.0 342.5 353.0 342.5 Q 344.0 342.5 338.0 341.2 Q 332.0 340.0 331.8 339.0 Q 331.5 338.0 326.8 334.8 Q 322.0 331.5 314.2 322.2 Q 306.5 313.0 304.5 305.0 Q 302.5 297.0 303.5 286.5 Q 304.5 276.0 308.0 270.5 Q 311.5 265.0 319.0 257.5 Q 326.5 250.0 331.2 248.2 Q 336.0 246.5 349.5 246.0 Q 363.0 245.5 367.0 246.2 z  "
       style="opacity:1;fill:#ABF9F9;fill-rule:evenodd;stroke:#ABF9F9;stroke-width:0.5px;stroke-linecap:butt;stroke-linejoin:miter;stroke-opacity:1;" />
    <path
       id="path4017"
       d="M 352.0 437.0 Q 364.0 436.5 371.5 438.5 Q 379.0 440.5 387.5 448.5 Q 396.0 456.5 397.8 461.2 Q 399.5 466.0 401.5 475.0 Q 403.5 484.0 403.0 489.0 Q 402.5 494.0 398.2 505.0 Q 394.0 516.0 393.0 516.2 Q 392.0 516.5 391.5 517.8 Q 391.0 519.0 387.0 521.2 Q 383.0 523.5 376.0 528.0 Q 369.0 532.5 355.0 532.5 Q 341.0 532.5 329.0 524.5 Q 317.0 516.5 311.2 505.8 Q 305.5 495.0 305.5 483.0 Q 305.5 471.0 311.5 461.0 Q 317.5 451.0 321.8 447.5 Q 326.0 444.0 326.2 443.0 Q 326.5 442.0 333.2 439.8 Q 340.0 437.5 352.0 437.0 z  "
       style="opacity:1;fill:#ACF8F8;fill-rule:evenodd;stroke:#ACF8F8;stroke-width:0.5px;stroke-linecap:butt;stroke-linejoin:miter;stroke-opacity:1;" />
    <path
       id="path4019"
       d="M 355.5 630.2 L 368.0 630.0 L 369.0 630.2 L 370.0 630.5 L 372.5 631.0 L 375.0 631.5 L 378.2 632.8 Q 381.5 634.0 390.0 642.0 Q 398.5 650.0 400.5 655.5 Q 402.5 661.0 404.5 665.5 Q 406.5 670.0 406.0 679.0 Q 405.5 688.0 401.5 697.5 Q 397.5 707.0 397.2 708.0 Q 397.0 709.0 391.2 713.0 Q 385.5 717.0 385.2 717.5 L 385.0 718.0 L 384.8 718.0 L 384.5 718.0 L 384.2 718.2 L 384.0 718.5 L 383.8 718.8 L 383.5 719.0 L 383.2 719.2 L 383.0 719.5 L 382.0 719.8 Q 381.0 720.0 381.0 721.0 Q 381.0 722.0 376.5 723.8 Q 372.0 725.5 359.0 726.0 Q 346.0 726.5 339.8 723.8 Q 333.5 721.0 325.8 714.8 Q 318.0 708.5 313.2 697.2 Q 308.5 686.0 308.0 677.0 Q 307.5 668.0 311.5 658.5 Q 315.5 649.0 323.5 641.5 Q 331.5 634.0 337.2 632.2 Q 343.0 630.5 355.5 630.2 z  "
       style="opacity:1;fill:#ACF8F8;fill-rule:evenodd;stroke:#ACF8F8;stroke-width:0.5px;stroke-linecap:butt;stroke-linejoin:miter;stroke-opacity:1;" />
    <path
       id="path4021"
       d="M 375.0 214.2 L 388.0 219.0 L 391.8 223.0 Q 395.5 227.0 395.8 227.2 L 396.0 227.5 L 396.2 227.8 L 396.5 228.0 L 396.8 228.2 L 397.0 228.5 L 397.2 228.8 L 397.5 229.0 L 397.8 229.2 L 398.0 229.5 L 398.2 229.8 L 398.5 230.0 L 398.8 230.2 L 399.0 230.5 L 399.2 230.8 L 399.5 231.0 L 399.5 232.0 L 399.5 233.0 L 399.2 232.8 L 399.0 232.5 L 398.8 232.2 L 398.5 232.0 L 398.2 231.8 L 398.0 231.5 L 397.8 231.2 L 397.5 231.0 L 397.2 230.8 L 397.0 230.5 L 396.8 230.2 L 396.5 230.0 L 396.2 229.8 L 396.0 229.5 L 395.8 229.2 L 395.5 229.0 L 395.2 230.0 L 395.0 231.0 L 394.0 230.8 Q 393.0 230.5 392.5 230.0 Q 392.0 229.5 382.0 229.0 L 372.0 228.5 L 371.8 228.8 L 371.5 229.0 L 371.5 230.5 L 371.5 232.0 L 371.8 232.2 L 372.0 232.5 L 372.2 232.8 L 372.5 233.0 L 372.8 233.2 L 373.0 233.5 L 374.8 236.8 Q 376.5 240.0 377.0 241.5 Q 377.5 243.0 377.8 243.2 L 378.0 243.5 L 378.2 243.8 L 378.5 244.0 L 378.8 244.2 L 379.0 244.5 L 379.2 244.8 L 379.5 245.0 L 379.8 245.2 L 380.0 245.5 L 380.2 245.8 L 380.5 246.0 L 380.8 246.2 L 381.0 246.5 L 376.0 246.8 L 371.0 247.0 L 367.0 246.2 Q 363.0 245.5 349.5 246.0 Q 336.0 246.5 331.2 248.2 Q 326.5 250.0 319.0 257.5 Q 311.5 265.0 308.0 270.5 Q 304.5 276.0 303.5 286.5 Q 302.5 297.0 304.5 305.0 Q 306.5 313.0 314.2 322.2 Q 322.0 331.5 326.8 334.8 Q 331.5 338.0 331.8 339.0 Q 332.0 340.0 338.0 341.2 Q 344.0 342.5 353.0 342.5 Q 362.0 342.5 364.0 342.2 L 366.0 342.0 L 365.8 342.5 L 365.5 343.0 L 365.2 343.2 L 365.0 343.5 L 366.0 344.0 L 367.0 344.5 L 366.8 344.8 L 366.5 345.0 L 366.2 345.2 L 366.0 345.5 L 365.8 345.8 L 365.5 346.0 L 365.2 346.2 L 365.0 346.5 L 365.2 346.8 L 365.5 347.0 L 365.5 347.5 L 365.5 348.0 L 365.2 348.2 L 365.0 348.5 L 366.8 349.2 Q 368.5 350.0 369.8 350.8 Q 371.0 351.5 375.5 352.0 L 380.0 352.5 L 380.2 352.8 L 380.5 353.0 L 380.5 355.5 Q 380.5 358.0 380.5 359.0 L 380.5 360.0 L 380.8 359.8 L 381.0 359.5 L 381.2 359.2 L 381.5 359.0 L 381.8 358.8 L 382.0 358.5 L 382.2 358.2 L 382.5 358.0 L 384.2 356.2 Q 386.0 354.5 390.5 354.5 L 395.0 354.5 L 394.8 354.8 L 394.5 355.0 L 394.2 355.2 L 394.0 355.5 L 393.8 355.8 L 393.5 356.0 L 393.0 357.0 L 392.5 358.0 L 392.2 358.2 L 392.0 358.5 L 393.0 358.5 L 394.0 358.5 L 394.2 358.2 L 394.5 358.0 L 394.8 357.8 L 395.0 357.5 L 396.0 357.5 L 397.0 357.5 L 396.8 357.8 L 396.5 358.0 L 396.2 358.2 L 396.0 358.5 L 395.8 358.8 L 395.5 359.0 L 395.2 359.2 L 395.0 359.5 L 394.8 359.8 L 394.5 360.0 L 394.2 360.2 Q 394.0 360.5 395.0 361.0 L 396.0 361.5 L 395.8 361.8 L 395.5 362.0 L 395.2 362.2 L 395.0 362.5 L 394.8 362.8 L 394.5 363.0 L 394.2 363.2 L 394.0 363.5 L 393.8 363.8 L 393.5 364.0 L 393.2 364.2 L 393.0 364.5 L 392.8 364.8 L 392.5 365.0 L 392.2 365.2 L 392.0 365.5 L 391.8 365.8 L 391.5 366.0 L 391.2 366.2 L 391.0 366.5 L 390.8 366.8 L 390.5 367.0 L 390.2 367.2 L 390.0 367.5 L 389.8 367.8 L 389.5 368.0 L 389.2 368.2 L 389.0 368.5 L 389.0 368.8 L 389.0 369.0 L 388.0 369.2 Q 387.0 369.5 377.0 372.0 Q 367.0 374.5 355.0 375.0 Q 343.0 375.5 330.0 372.5 Q 317.0 369.5 306.0 362.0 Q 295.0 354.5 291.5 349.2 Q 288.0 344.0 287.0 344.0 Q 286.0 344.0 281.2 337.0 Q 276.5 330.0 273.5 318.5 Q 270.5 307.0 270.0 294.5 Q 269.5 282.0 272.0 271.0 Q 274.5 260.0 277.2 254.8 Q 280.0 249.5 285.5 241.8 Q 291.0 234.0 292.0 233.8 Q 293.0 233.5 298.5 228.5 Q 304.0 223.5 308.0 221.5 Q 312.0 219.5 323.0 215.0 Q 334.0 210.5 348.0 210.0 Q 362.0 209.5 375.0 214.2 z  "
       style="opacity:1;fill:#1B1B1B;fill-rule:evenodd;stroke:#1B1B1B;stroke-width:0.5px;stroke-linecap:butt;stroke-linejoin:miter;stroke-opacity:1;" />
    <path
       id="path4023"
       d="M 384.0 602.2 L 380.0 598.0 L 392.2 603.0 Q 404.5 608.0 414.0 617.0 Q 423.5 626.0 430.5 637.5 Q 437.5 649.0 439.0 656.5 Q 440.5 664.0 440.0 680.0 Q 439.5 696.0 437.0 703.0 Q 434.5 710.0 430.5 716.0 Q 426.5 722.0 422.2 727.8 Q 418.0 733.5 417.5 734.8 Q 417.0 736.0 408.2 742.5 Q 399.5 749.0 399.2 749.2 L 399.0 749.5 L 398.8 749.8 L 398.5 750.0 L 398.2 750.2 L 398.0 750.5 L 397.0 751.0 L 396.0 751.5 L 395.8 751.8 L 395.5 752.0 L 395.2 752.2 L 395.0 752.5 L 394.0 753.0 L 393.0 753.5 L 392.0 753.8 L 391.0 754.0 L 391.2 753.5 L 391.5 753.0 L 391.8 752.8 L 392.0 752.5 L 392.2 752.2 L 392.5 752.0 L 392.8 751.8 L 393.0 751.5 L 393.2 751.2 L 393.5 751.0 L 393.8 750.8 L 394.0 750.5 L 394.2 750.2 L 394.5 750.0 L 394.8 749.8 L 395.0 749.5 L 395.2 749.2 L 395.5 749.0 L 395.8 748.8 L 396.0 748.5 L 396.2 748.2 Q 396.5 748.0 397.0 747.5 L 397.5 747.0 L 397.8 746.8 L 398.0 746.5 L 398.2 746.2 L 398.5 746.0 L 398.8 745.8 L 399.0 745.5 L 399.2 745.2 L 399.5 745.0 L 399.8 744.8 L 400.0 744.5 L 400.2 744.2 L 400.5 744.0 L 400.8 743.8 L 401.0 743.5 L 401.2 743.2 L 401.5 743.0 L 402.0 741.5 L 402.5 740.0 L 402.8 739.8 L 403.0 739.5 L 400.0 739.5 L 397.0 739.5 L 396.5 739.5 L 396.0 739.5 L 395.0 739.5 Q 394.0 739.5 391.0 741.5 L 388.0 743.5 L 385.0 743.5 L 382.0 743.5 L 382.2 743.2 L 382.5 743.0 L 382.8 742.8 L 383.0 742.5 L 383.2 742.2 L 383.5 742.0 L 383.8 741.8 L 384.0 741.5 L 384.2 741.2 L 384.5 741.0 L 384.8 740.8 L 385.0 740.5 L 385.2 740.2 L 385.5 740.0 L 385.5 738.5 Q 385.5 737.0 387.0 735.0 Q 388.5 733.0 386.8 732.2 Q 385.0 731.5 386.0 730.5 Q 387.0 729.5 388.2 727.2 Q 389.5 725.0 387.5 726.5 Q 385.5 728.0 386.5 724.5 L 387.5 721.0 L 387.8 720.8 L 388.0 720.5 L 388.2 720.2 L 388.5 720.0 L 388.8 719.8 L 389.0 719.5 L 389.2 719.2 L 389.5 719.0 L 389.8 718.8 L 390.0 718.5 L 387.5 718.2 L 385.0 718.0 L 385.2 717.5 Q 385.5 717.0 391.2 713.0 Q 397.0 709.0 397.2 708.0 Q 397.5 707.0 401.5 697.5 Q 405.5 688.0 406.0 679.0 Q 406.5 670.0 404.5 665.5 Q 402.5 661.0 400.5 655.5 Q 398.5 650.0 390.0 642.0 Q 381.5 634.0 378.2 632.8 L 375.0 631.5 L 372.5 631.0 L 370.0 630.5 L 369.0 630.2 L 368.0 630.0 L 368.0 629.8 L 368.0 629.5 L 375.5 629.0 L 383.0 628.5 L 382.8 628.2 L 382.5 628.0 L 382.2 627.8 L 382.0 627.5 L 381.8 627.2 L 381.5 627.0 L 381.2 626.8 L 381.0 626.5 L 380.8 626.2 L 380.5 626.0 L 380.0 623.0 Q 379.5 620.0 378.2 619.2 Q 377.0 618.5 376.8 617.2 L 376.5 616.0 L 376.8 615.8 L 377.0 615.5 L 376.8 615.2 L 376.5 615.0 L 376.2 614.0 L 376.0 613.0 L 381.0 612.8 Q 386.0 612.5 387.5 612.0 L 389.0 611.5 L 390.0 611.0 L 391.0 610.5 L 392.0 610.0 L 393.0 609.5 L 392.8 609.2 L 392.5 609.0 L 392.2 608.8 L 392.0 608.5 L 391.8 608.2 L 391.5 608.0 L 391.2 607.8 L 391.0 607.5 L 389.5 607.0 Q 388.0 606.5 384.0 602.2 z  "
       style="opacity:1;fill:#1A1A1A;fill-rule:evenodd;stroke:#1A1A1A;stroke-width:0.5px;stroke-linecap:butt;stroke-linejoin:miter;stroke-opacity:1;" />
    <path
       id="path4025"
       d="M 391.8 223.0 L 388.0 219.0 L 392.8 221.0 Q 397.5 223.0 410.0 235.5 Q 422.5 248.0 429.0 263.5 Q 435.5 279.0 435.5 293.5 Q 435.5 308.0 432.0 316.5 Q 428.5 325.0 425.2 332.8 Q 422.0 340.5 414.0 349.0 Q 406.0 357.5 401.5 360.5 Q 397.0 363.5 396.8 363.8 L 396.5 364.0 L 396.2 364.2 L 396.0 364.5 L 395.8 364.8 L 395.5 365.0 L 395.2 365.2 L 395.0 365.5 L 394.8 365.8 L 394.5 366.0 L 394.2 366.2 L 394.0 366.5 L 393.8 366.8 L 393.5 367.0 L 393.2 367.2 L 393.0 367.5 L 392.0 368.0 L 391.0 368.5 L 390.0 368.8 L 389.0 369.0 L 389.0 368.8 L 389.0 368.5 L 389.2 368.2 L 389.5 368.0 L 389.8 367.8 L 390.0 367.5 L 390.2 367.2 L 390.5 367.0 L 390.8 366.8 L 391.0 366.5 L 391.2 366.2 L 391.5 366.0 L 391.8 365.8 L 392.0 365.5 L 392.2 365.2 L 392.5 365.0 L 392.8 364.8 L 393.0 364.5 L 393.2 364.2 L 393.5 364.0 L 393.8 363.8 L 394.0 363.5 L 394.2 363.2 L 394.5 363.0 L 394.8 362.8 L 395.0 362.5 L 395.2 362.2 L 395.5 362.0 L 395.8 361.8 L 396.0 361.5 L 395.0 361.0 Q 394.0 360.5 394.2 360.2 L 394.5 360.0 L 394.8 359.8 L 395.0 359.5 L 395.2 359.2 L 395.5 359.0 L 395.8 358.8 L 396.0 358.5 L 396.2 358.2 L 396.5 358.0 L 396.8 357.8 L 397.0 357.5 L 396.0 357.5 L 395.0 357.5 L 394.8 357.8 L 394.5 358.0 L 394.2 358.2 L 394.0 358.5 L 393.0 358.5 L 392.0 358.5 L 392.2 358.2 L 392.5 358.0 L 393.0 357.0 L 393.5 356.0 L 393.8 355.8 L 394.0 355.5 L 394.2 355.2 L 394.5 355.0 L 394.8 354.8 L 395.0 354.5 L 390.5 354.5 Q 386.0 354.5 384.2 356.2 L 382.5 358.0 L 382.2 358.2 L 382.0 358.5 L 381.8 358.8 L 381.5 359.0 L 381.2 359.2 L 381.0 359.5 L 380.8 359.8 L 380.5 360.0 L 380.2 360.2 L 380.0 360.5 L 379.0 360.8 L 378.0 361.0 L 378.0 360.0 L 378.0 359.0 L 379.0 358.8 Q 380.0 358.5 380.2 358.2 Q 380.5 358.0 380.5 355.5 L 380.5 353.0 L 380.2 352.8 L 380.0 352.5 L 375.5 352.0 Q 371.0 351.5 369.8 350.8 Q 368.5 350.0 366.8 349.2 L 365.0 348.5 L 365.2 348.2 L 365.5 348.0 L 365.5 347.5 L 365.5 347.0 L 365.2 346.8 L 365.0 346.5 L 365.2 346.2 L 365.5 346.0 L 365.8 345.8 L 366.0 345.5 L 366.2 345.2 L 366.5 345.0 L 366.8 344.8 L 367.0 344.5 L 366.0 344.0 L 365.0 343.5 L 365.2 343.2 L 365.5 343.0 L 365.8 342.5 L 366.0 342.0 L 367.0 341.8 Q 368.0 341.5 372.0 339.5 Q 376.0 337.5 383.5 330.5 Q 391.0 323.5 394.2 317.2 Q 397.5 311.0 398.0 296.0 Q 398.5 281.0 396.5 274.5 Q 394.5 268.0 387.5 260.5 Q 380.5 253.0 377.2 250.8 L 374.0 248.5 L 372.5 248.0 L 371.0 247.5 L 371.0 247.2 L 371.0 247.0 L 376.0 246.8 L 381.0 246.5 L 380.8 246.2 L 380.5 246.0 L 380.2 245.8 L 380.0 245.5 L 379.8 245.2 L 379.5 245.0 L 379.2 244.8 L 379.0 244.5 L 378.8 244.2 L 378.5 244.0 L 378.2 243.8 L 378.0 243.5 L 377.8 243.2 Q 377.5 243.0 377.0 241.5 Q 376.5 240.0 374.8 236.8 L 373.0 233.5 L 372.8 233.2 L 372.5 233.0 L 372.2 232.8 L 372.0 232.5 L 371.8 232.2 L 371.5 232.0 L 371.5 230.5 L 371.5 229.0 L 371.8 228.8 L 372.0 228.5 L 382.0 229.0 Q 392.0 229.5 392.5 230.0 Q 393.0 230.5 394.0 230.8 L 395.0 231.0 L 395.2 230.0 L 395.5 229.0 L 395.8 229.2 L 396.0 229.5 L 396.2 229.8 L 396.5 230.0 L 396.8 230.2 L 397.0 230.5 L 397.2 230.8 L 397.5 231.0 L 397.8 231.2 L 398.0 231.5 L 398.2 231.8 L 398.5 232.0 L 398.8 232.2 L 399.0 232.5 L 399.2 232.8 L 399.5 233.0 L 399.5 232.0 L 399.5 231.0 L 399.2 230.8 L 399.0 230.5 L 398.8 230.2 L 398.5 230.0 L 398.2 229.8 L 398.0 229.5 L 397.8 229.2 L 397.5 229.0 L 397.2 228.8 L 397.0 228.5 L 396.8 228.2 L 396.5 228.0 L 396.2 227.8 L 396.0 227.5 L 395.8 227.2 Q 395.5 227.0 391.8 223.0 z  "
       style="opacity:1;fill:#141F1F;fill-rule:evenodd;stroke:#141F1F;stroke-width:0.5px;stroke-linecap:butt;stroke-linejoin:miter;stroke-opacity:1;" />
    <path
       id="path4027"
       d="M 372.5 595.8 L 380.0 598.0 L 384.0 602.2 Q 388.0 606.5 389.5 607.0 L 391.0 607.5 L 391.2 607.8 L 391.5 608.0 L 391.8 608.2 L 392.0 608.5 L 392.2 608.8 L 392.5 609.0 L 392.8 609.2 L 393.0 609.5 L 392.0 610.0 L 391.0 610.5 L 390.0 611.0 L 389.0 611.5 L 387.5 612.0 Q 386.0 612.5 381.0 612.8 L 376.0 613.0 L 376.2 614.0 L 376.5 615.0 L 376.8 615.2 L 377.0 615.5 L 376.8 615.8 L 376.5 616.0 L 376.8 617.2 Q 377.0 618.5 378.2 619.2 Q 379.5 620.0 380.0 623.0 L 380.5 626.0 L 380.8 626.2 L 381.0 626.5 L 381.2 626.8 L 381.5 627.0 L 381.8 627.2 L 382.0 627.5 L 382.2 627.8 L 382.5 628.0 L 382.8 628.2 L 383.0 628.5 L 375.5 629.0 L 368.0 629.5 L 368.0 629.8 L 368.0 630.0 L 355.5 630.2 Q 343.0 630.5 337.2 632.2 Q 331.5 634.0 323.5 641.5 Q 315.5 649.0 311.5 658.5 Q 307.5 668.0 308.0 677.0 Q 308.5 686.0 313.2 697.2 Q 318.0 708.5 325.8 714.8 Q 333.5 721.0 339.8 723.8 Q 346.0 726.5 359.0 726.0 Q 372.0 725.5 376.5 723.8 Q 381.0 722.0 381.0 721.0 Q 381.0 720.0 382.0 719.8 L 383.0 719.5 L 383.2 719.2 L 383.5 719.0 L 383.8 718.8 L 384.0 718.5 L 384.2 718.2 L 384.5 718.0 L 384.8 718.0 L 385.0 718.0 L 387.5 718.2 L 390.0 718.5 L 389.8 718.8 L 389.5 719.0 L 389.2 719.2 L 389.0 719.5 L 388.8 719.8 L 388.5 720.0 L 388.2 720.2 L 388.0 720.5 L 387.8 720.8 L 387.5 721.0 L 386.5 724.5 Q 385.5 728.0 387.5 726.5 Q 389.5 725.0 388.2 727.2 Q 387.0 729.5 386.0 730.5 Q 385.0 731.5 386.8 732.2 Q 388.5 733.0 387.0 735.0 Q 385.5 737.0 385.5 738.5 L 385.5 740.0 L 385.2 740.2 L 385.0 740.5 L 384.8 740.8 L 384.5 741.0 L 384.2 741.2 L 384.0 741.5 L 383.8 741.8 L 383.5 742.0 L 383.2 742.2 L 383.0 742.5 L 382.8 742.8 L 382.5 743.0 L 382.2 743.2 L 382.0 743.5 L 385.0 743.5 L 388.0 743.5 L 391.0 741.5 Q 394.0 739.5 395.0 739.5 L 396.0 739.5 L 396.5 739.5 L 397.0 739.5 L 400.0 739.5 L 403.0 739.5 L 402.8 739.8 L 402.5 740.0 L 402.0 741.5 L 401.5 743.0 L 401.2 743.2 L 401.0 743.5 L 400.8 743.8 L 400.5 744.0 L 400.2 744.2 L 400.0 744.5 L 399.8 744.8 L 399.5 745.0 L 399.2 745.2 L 399.0 745.5 L 398.8 745.8 L 398.5 746.0 L 398.2 746.2 L 398.0 746.5 L 397.8 746.8 L 397.5 747.0 L 397.0 747.5 Q 396.5 748.0 396.2 748.2 L 396.0 748.5 L 395.8 748.8 L 395.5 749.0 L 395.2 749.2 L 395.0 749.5 L 394.8 749.8 L 394.5 750.0 L 394.2 750.2 L 394.0 750.5 L 393.8 750.8 L 393.5 751.0 L 393.2 751.2 L 393.0 751.5 L 392.8 751.8 L 392.5 752.0 L 392.2 752.2 L 392.0 752.5 L 391.8 752.8 L 391.5 753.0 L 391.2 753.5 L 391.0 754.0 L 390.0 754.2 Q 389.0 754.5 380.0 756.5 Q 371.0 758.5 360.0 759.0 Q 349.0 759.5 335.0 756.5 Q 321.0 753.5 316.0 750.2 Q 311.0 747.0 311.0 746.0 Q 311.0 745.0 310.0 744.8 Q 309.0 744.5 301.5 738.0 Q 294.0 731.5 291.2 727.8 Q 288.5 724.0 284.2 717.2 Q 280.0 710.5 277.2 702.2 Q 274.5 694.0 274.5 676.5 Q 274.5 659.0 276.0 653.0 Q 277.5 647.0 284.0 636.0 Q 290.5 625.0 299.8 616.2 Q 309.0 607.5 318.5 603.5 Q 328.0 599.5 334.0 597.0 Q 340.0 594.5 352.5 594.0 Q 365.0 593.5 372.5 595.8 z  "
       style="opacity:1;fill:#151E1E;fill-rule:evenodd;stroke:#151E1E;stroke-width:0.5px;stroke-linecap:butt;stroke-linejoin:miter;stroke-opacity:1;" />
  </g>
</svg>
